<?xml version="1.0" encoding="UTF-8"?>
<svg width="32px" height="28px" viewBox="0 0 32 28" version="1.1" xmlns="http://www.w3.org/2000/svg" xmlns:xlink="http://www.w3.org/1999/xlink">
    <title>HEX</title>
    <defs>
        <linearGradient x1="75%" y1="12.1591473%" x2="25.0657%" y2="87.9514179%" id="linearGradient-1">
            <stop stop-color="#FF00FF" offset="0%"></stop>
            <stop stop-color="#FF3333" offset="50%"></stop>
            <stop stop-color="#FFDD00" offset="100%"></stop>
        </linearGradient>
    </defs>
    <g id="Page-1" stroke="none" stroke-width="1" fill="none" fill-rule="evenodd">
        <path d="M7.52331265,27.3560999 L5.35758866,23.6210254 C5.29033425,23.4825897 5.29033425,23.3211092 5.35758866,23.1826736 L7.76382201,19.0330953 C7.84932654,18.9027181 7.99188719,18.8205335 8.14795305,18.8116482 L12.95814,18.8116482 C13.1144554,18.8207167 13.2572867,18.9028137 13.3434109,19.0330953 L15.7485045,23.1826736 C15.8181151,23.3221601 15.8181151,23.4860813 15.7485045,23.6255678 L13.3365718,27.7728747 C13.2504282,27.8996227 13.1112642,27.9806397 12.95814,27.9931862 L8.63695073,27.9931862 C8.18669386,27.964259 7.77535594,27.7289422 7.52331265,27.3560999 Z M23.1393225,18.8150552 L18.3519326,10.5476963 C18.2336364,10.3708787 18.0393136,10.2591691 17.8264596,10.2456197 L8.24028128,10.2456197 C8.02742736,10.2591691 7.83310452,10.3708787 7.71480824,10.5476963 L2.92171909,18.8195976 C2.82720855,19.0099756 2.82720855,19.2333729 2.92171909,19.4237508 L4.33171939,21.8494484 L6.78924621,17.6112914 C6.92386588,17.4067351 7.1472173,17.2771756 7.39222936,17.2615185 L13.7070246,17.2615185 C13.9538392,17.2752404 14.1793906,17.4050944 14.3145671,17.6112914 L17.4731046,23.0622972 C17.5848257,23.2821964 17.5848257,23.5419438 17.4731046,23.761843 L15.0155778,28 L17.82304,28 C18.0364733,27.9874162 18.2313469,27.874969 18.348513,27.6967878 L23.1393225,19.4260221 C23.236104,19.2337795 23.236104,19.0072978 23.1393225,18.8150552 Z M31.8364142,13.3447437 L24.4900504,0.652985075 C24.2361722,0.266876179 23.8128491,0.024368404 23.3501956,0 L8.64606957,0 C8.18341609,0.024368404 7.76009303,0.266876179 7.50621483,0.652985075 L0.156431498,13.3447437 C-0.0521438326,13.7544682 -0.0521438326,14.238718 0.156431498,14.6484425 L1.84227665,17.5567813 L6.72541434,9.12248539 C6.8928515,8.86800019 7.17163028,8.70784398 7.47657861,8.69094744 L18.5799036,8.69094744 C18.8845493,8.70783767 19.1629835,8.86803902 19.329928,9.12248539 L24.8798807,18.6992213 C25.0177971,18.9705068 25.0177971,19.2910118 24.8798807,19.5622972 L19.9921836,27.9931862 L23.354755,27.9931862 C23.8174085,27.9688179 24.2407316,27.7263101 24.4946098,27.3402011 L31.8443932,14.6495782 C32.0518689,14.2395924 32.0518689,13.7558651 31.8443932,13.3458793 L31.8364142,13.3447437 Z" id="HEX" fill="url(#linearGradient-1)" fill-rule="nonzero"></path>
    </g>
</svg>